:SAMPLES-PER-SECOND 30
:FRAME-RANGE 1-2091
:FULLY-SPECIFIED
:DEGREES
915
root  115.598 39.2821 84.4346 7.36726 -6.50677 -2.95015
RightUpLeg  -26.0996 18.9425 -8.60926
RightLeg  16.9417 21.3481 5.49717
RightFoot  0.14034 -3.69603 35.6527
RightToes  5.38607e-012 1.2921e-014 -6.02303e-014
Spine  -0.338854 -2.98927 -0.641102
Spine1  7.25016 -3.27648 0.791433
HEad  26.5555 -38.7499 3.25536
LeftShoulder1  1.15931 -1.06362 -20.3423
LeftArm  -1.88487 7.42581 -40.7658
LeftForeArm  37.4194 -4.27719 -11.7581
LeftHand  -9.97837e-005 5.78477 6.92747
RightShoulder  0.944361 -0.346301 25.7256
RightArm  9.03899 6.92907 56.5808
RightForeArm  47.3821 13.8234 9.82304
RightHand  0.428988 -8.27402 -17.9052
LeftUpLeg  -18.8504 -17.8672 10.8301
LeftLeg  23.9298 -15.5857 -7.11942
LeftFoot  -13.5822 0.0249442 -2.8871
LeftToes  -7.20997e-011 3.75522e-011 -2.80735e-011
916
root  116.116 39.2214 84.1295 7.68874 -11.1195 -2.52229
RightUpLeg  -23.849 12.7087 -6.96966
RightLeg  14.3238 18.4758 4.05064
RightFoot  -1.80701 -7.32231 75.1604
RightToes  5.38607e-012 1.2921e-014 -6.02303e-014
Spine  -0.747256 -3.41937 -2.96969
Spine1  7.10765 -3.41439 0.23569
HEad  27.5729 -36.8511 3.68214
LeftShoulder1  1.25815 -1.5528 -19.6613
LeftArm  -2.12149 7.24627 -39.6475
LeftForeArm  35.3362 -4.16541 -11.7524
LeftHand  0.0293662 6.31274 6.95282
RightShoulder  1.08581 0.010404 26.6337
RightArm  2.85163 5.31457 55.4453
RightForeArm  50.1275 12.4001 10.0864
RightHand  0.467126 -8.42541 -18.4322
LeftUpLeg  -19.0518 -16.2408 9.30226
LeftLeg  24.3737 -12.6897 -5.87836
LeftFoot  -13.5803 0.0394896 -2.1459
LeftToes  -7.20997e-011 3.75522e-011 -2.80735e-011
917
root  116.707 39.3689 83.8139 7.7735 -16.2056 -2.5697
RightUpLeg  -20.9443 7.63169 -3.98847
RightLeg  13.5741 11.2025 2.31654
RightFoot  -4.10509 -5.72656 76.6723
RightToes  5.38607e-012 1.2921e-014 -6.02303e-014
Spine  -1.34143 -3.44854 -3.52517
Spine1  7.61316 -3.33417 -0.247817
HEad  27.8602 -34.0989 4.38556
LeftShoulder1  1.24785 -1.58442 -19.2548
LeftArm  -1.48786 6.71284 -38.7885
LeftForeArm  32.9064 -3.67364 -12.0423
LeftHand  -0.0272971 5.29934 5.69423
RightShoulder  1.07571 -0.0466311 26.9047
RightArm  -6.42132 4.47538 55.4891
RightForeArm  56.9627 8.73192 10.6575
RightHand  0.387795 -7.84435 -18.9763
LeftUpLeg  -18.1162 -15.1997 8.29087
LeftLeg  22.8829 -9.71766 -4.13498
LeftFoot  -12.5703 0.0403913 -3.25882
LeftToes  -7.20997e-011 3.75522e-011 -2.80735e-011
918
root  117.33 39.7015 83.5766 8.10138 -21.9836 -3.49124
RightUpLeg  -19.1418 2.93709 0.152268
RightLeg  15.3018 2.42435 0.458882
RightFoot  -5.29109 -2.87372 50.3273
RightToes  5.38607e-012 1.2921e-014 -6.02303e-014
Spine  -1.61258 -2.94645 -1.97677
Spine1  7.28423 -2.80176 -0.703732
HEad  27.9768 -31.1618 4.76878
LeftShoulder1  1.21218 -1.35623 -19.7739
LeftArm  -0.636746 6.08643 -37.2847
LeftForeArm  31.9596 -2.95619 -12.392
LeftHand  -0.0413904 4.91352 4.71027
RightShoulder  1.3098 0.760298 26.1296
RightArm  -11.9213 2.48976 55.3232
RightForeArm  59.9785 6.17562 10.4178
RightHand  0.369446 -7.78199 -18.6128
LeftUpLeg  -15.9553 -13.2932 7.76335
LeftLeg  19.5421 -6.26538 -1.97382
LeftFoot  -10.6875 0.0821813 -3.17144
LeftToes  -7.20997e-011 3.75522e-011 -2.80735e-011
919
root  117.786 39.7789 83.4279 7.94644 -27.765 -3.60271
RightUpLeg  -17.7727 2.68202 1.6758
RightLeg  18.2591 -5.31826 -2.16323
RightFoot  -7.84137 -1.01535 30.7466
RightToes  5.38607e-012 1.2921e-014 -6.02303e-014
Spine  -2.16031 -2.47391 -2.29329
Spine1  7.34681 -2.3011 -0.789614
HEad  27.0092 -28.419 5.31486
LeftShoulder1  1.21148 -1.20389 -20.698
LeftArm  -0.853597 5.63387 -36.2626
LeftForeArm  31.9899 -2.27205 -12.4682
LeftHand  -0.000801165 5.94425 5.32498
RightShoulder  1.0316 -0.120448 26.2484
RightArm  -13.4224 2.23359 54.8834
RightForeArm  61.1075 2.59232 10.3034
RightHand  0.392372 -7.87477 -18.96
LeftUpLeg  -14.4545 -9.34169 6.35336
LeftLeg  18.5633 -4.87565 -0.69018
LeftFoot  -10.3584 0.0936977 -3.68311
LeftToes  -7.20997e-011 3.75522e-011 -2.80735e-011
920
root  118.177 39.7772 83.2629 7.75798 -33.4727 -3.27495
RightUpLeg  -16.4664 1.47689 1.50622
RightLeg  20.6497 -7.1383 -3.17221
RightFoot  -10.0208 -0.279656 18.1732
RightToes  5.38607e-012 1.2921e-014 -6.02303e-014
Spine  -2.93281 -2.30906 -2.44736
Spine1  7.24605 -1.77846 -2.284
HEad  25.6571 -25.7691 6.74393
LeftShoulder1  1.34566 -1.78407 -20.245
LeftArm  -0.688061 6.61805 -35.6276
LeftForeArm  30.8466 -2.72487 -12.4209
LeftHand  -0.0401536 4.84717 3.73076
RightShoulder  0.920505 -0.540683 27.1551
RightArm  -14.8931 2.33823 54.2
RightForeArm  63.0564 -1.32276 9.35455
RightHand  0.31965 -7.60997 -17.5457
LeftUpLeg  -13.5538 -5.54081 4.74445
LeftLeg  17.9995 -2.99325 0.606093
LeftFoot  -10.2002 0.0978926 -3.68889
LeftToes  -7.20997e-011 3.75522e-011 -2.80735e-011
921
root  118.523 39.7857 83.0927 7.59077 -38.9656 -3.14536
RightUpLeg  -15.085 0.463913 0.327111
RightLeg  22.3801 -5.87065 -2.86125
RightFoot  -11.4497 -0.0674258 11.1587
RightToes  5.38607e-012 1.2921e-014 -6.02303e-014
Spine  -3.54605 -2.91304 -2.68125
Spine1  7.23619 -2.33728 -2.81013
HEad  24.3767 -22.0417 7.45504
LeftShoulder1  0.976799 -0.303991 -20.9025
LeftArm  -0.33519 7.19233 -34.9907
LeftForeArm  30.6642 -3.43387 -12.3525
LeftHand  -0.0541423 4.08815 3.08665
RightShoulder  1.13453 0.187153 26.3727
RightArm  -18.0855 2.69201 54.9804
RightForeArm  67.1436 -5.28686 7.27241
RightHand  0.239707 -7.20485 -16.4314
LeftUpLeg  -12.8494 -2.8757 3.73145
LeftLeg  17.6512 -0.635029 1.80614
LeftFoot  -9.9456 0.10792 -3.96455
LeftToes  -7.20997e-011 3.75522e-011 -2.80735e-011
922
root  118.813 39.8087 82.9275 7.23248 -43.9997 -2.89107
RightUpLeg  -13.5708 -1.104 -1.33816
RightLeg  23.3473 -5.17813 -2.65746
RightFoot  -12.094 -0.0369737 6.87482
RightToes  5.38607e-012 1.2921e-014 -6.02303e-014
Spine  -4.32696 -3.29583 -2.87039
Spine1  7.69268 -2.63619 -3.37425
HEad  23.2515 -19.8668 8.59654
LeftShoulder1  0.819478 0.24252 -20.5709
LeftArm  -0.133977 7.39005 -35.5564
LeftForeArm  29.2287 -3.85067 -12.3348
LeftHand  -0.0524447 4.03923 2.83086
RightShoulder  1.21162 0.415038 26.4753
RightArm  -19.2843 2.42476 54.44
RightForeArm  68.5101 -5.87651 6.64089
RightHand  0.425617 -8.43598 -16.9087
LeftUpLeg  -11.9335 -0.0774869 2.97549
LeftLeg  16.8524 1.45158 2.43424
LeftFoot  -9.62077 0.118923 -4.07814
LeftToes  -7.20997e-011 3.75522e-011 -2.80735e-011
923
root  119.063 39.8759 82.7666 7.10695 -48.9037 -2.80908
RightUpLeg  -11.7498 -4.12198 -3.15825
RightLeg  22.6899 -3.85122 -1.97819
RightFoot  -12.2353 -0.0524033 3.92036
RightToes  5.38607e-012 1.2921e-014 -6.02303e-014
Spine  -5.40047 -3.69646 -2.02041
Spine1  8.40193 -2.70395 -4.95952
HEad  22.6169 -18.3645 9.96119
LeftShoulder1  0.642287 0.81129 -19.4932
LeftArm  -1.00299 7.13697 -36.8044
LeftForeArm  29.8033 -4.04239 -12.0952
LeftHand  -0.0504172 3.24027 2.23539
RightShoulder  1.37745 0.913415 26.5928
RightArm  -21.9068 1.99257 54.1367
RightForeArm  68.4333 -5.67425 5.38262
RightHand  0.453861 -8.63603 -16.8865
LeftUpLeg  -10.9567 2.12479 2.55074
LeftLeg  15.6293 4.23318 2.9843
LeftFoot  -9.00375 0.142122 -4.3195
LeftToes  -7.20997e-011 3.75522e-011 -2.80735e-011
